<svg viewBox="0 0 230 46" fill="none" xmlns="http://www.w3.org/2000/svg">
<path d="M48.9226 27.5714C48.9226 27.7158 48.7901 27.8603 48.7179 28.0048L48.5012 28.3539L48.417 28.4622L48.128 28.7993L48.0558 28.8715C47.8781 29.0518 47.6891 29.2206 47.49 29.3771C44.6491 31.6763 37.7393 34.409 24.8225 27.9325C22.2063 28.71 19.4296 28.7723 16.7811 28.1131C19.7064 26.3194 19.923 24.9832 19.923 24.9832C19.923 24.9832 13.0132 11.284 2.2874 10.9229C1.97441 11.597 1.70958 12.3193 1.45679 13.0415C11.34 16.3761 9.65465 25.874 17.5636 32.9162C24.1604 38.7547 40.3515 40.5243 46.9965 32.5431C47.8228 30.9605 48.4766 29.2937 48.9466 27.5714C48.9386 27.5724 48.9306 27.5724 48.9226 27.5714Z" fill="white"/>
<path d="M82.1833 21.6476C82.0028 16.8324 78.1747 14.4971 70.4824 14.4971C62.7902 14.4971 58.926 16.9047 58.7815 21.7921C58.7815 22.0569 58.7815 26.1739 58.7815 26.4628C58.7027 27.5247 58.8691 28.5904 59.2677 29.5777C59.6664 30.565 60.2867 31.4474 61.0808 32.1568C62.9707 33.7458 66.0525 34.5644 70.4945 34.5644C74.9365 34.5644 78.0302 33.794 79.9202 32.1568C80.7113 31.4457 81.3289 30.5627 81.7254 29.5756C82.1219 28.5885 82.2868 27.5236 82.2074 26.4628C82.1954 26.1619 82.1954 21.9606 82.1833 21.6476ZM70.5306 32.5661C64.8607 32.5661 62.429 30.7363 62.429 26.4628C62.429 26.0897 62.429 21.9847 62.429 21.6476C62.5374 18.0362 65.1014 16.3991 70.5185 16.3991C75.9356 16.3991 78.5479 18.0844 78.6442 21.6958V26.4147C78.6081 30.7363 76.1764 32.5661 70.5306 32.5661Z" fill="#231F20"/>
<path d="M86.9382 21.3116C86.9382 20.4208 87.0947 19.7949 89.2254 19.3254C92.0904 18.771 94.999 18.4729 97.9169 18.4346C98.9281 18.4346 99.1207 18.5911 99.1207 19.4819C99.1207 20.3727 99.1207 20.6134 98.0734 20.6134C95.7334 20.5949 93.3965 20.7883 91.0913 21.1913C90.7422 21.2635 90.2727 21.3478 90.2727 22.0821V32.7477C90.2727 33.6024 90.2728 34.0358 88.6476 34.0358C87.0225 34.0358 86.9743 33.6024 86.9743 32.7477L86.9382 21.3116Z" fill="#231F20"/>
<path d="M111.7 18.3984C113.802 18.3981 115.901 18.5388 117.984 18.8198C118.839 18.9763 119.031 19.1328 119.031 20.0236C119.031 20.9144 118.598 20.9625 117.755 20.8783C115.81 20.6318 113.853 20.4912 111.893 20.4569C106.271 20.4569 104.598 21.5042 104.598 26.3917C104.598 31.2791 106.271 32.3866 111.893 32.3866C113.854 32.3514 115.811 32.2067 117.755 31.9532C118.598 31.881 119.031 31.7606 119.031 32.8079C119.031 33.8552 118.839 33.8552 117.984 34.0117C115.902 34.3006 113.802 34.4454 111.7 34.4451C103.202 34.4451 101.107 31.7967 101.107 26.4518C101.107 21.107 103.202 18.3984 111.7 18.3984Z" fill="#231F20"/>
<path d="M131.443 34.4199C123.498 34.4199 122.246 32.9392 122.246 29.4121C122.246 25.3432 126.086 25.1867 131.322 25.1867H137.654C137.772 25.1994 137.892 25.1847 138.003 25.1436C138.115 25.1026 138.215 25.0364 138.297 24.9502C138.378 24.8639 138.439 24.76 138.473 24.6465C138.508 24.533 138.516 24.4131 138.497 24.2959V23.5977C138.497 21.0697 137.57 20.4919 133.116 20.4919C129.625 20.4919 126.242 20.8049 125.58 20.8771C124.918 20.9494 124.377 21.0697 124.377 20.0224C124.377 18.9751 124.581 18.939 125.424 18.8186C128.028 18.5553 130.643 18.4268 133.261 18.4334C135.45 18.3533 137.637 18.6298 139.737 19.252C141.723 20.0224 141.832 21.5031 141.832 23.0079V31.7836C141.832 32.6744 141.675 33.3244 139.544 33.7578C136.87 34.227 134.158 34.4486 131.443 34.4199ZM138.497 28.0157C138.497 27.474 138.353 27.1249 137.691 27.1249H131.322C127.41 27.1249 125.701 27.4378 125.701 29.5324C125.701 32.0484 126.905 32.554 131.72 32.554C133.707 32.5522 135.691 32.3953 137.654 32.0845C138.004 32.0123 138.461 31.9762 138.461 31.1215L138.497 28.0157Z" fill="#231F20"/>
<path d="M182.003 32.7473C182.003 33.602 182.003 34.0353 180.365 34.0353C178.728 34.0353 178.704 33.602 178.704 32.7473V20.0713C178.704 19.2166 178.704 18.7832 180.365 18.7832C182.027 18.7832 182.003 19.2166 182.003 20.0713V32.7473Z" fill="#231F20"/>
<path d="M201.66 30.0387C201.66 28.1006 200.541 27.7033 196.472 27.5107C189.682 27.1978 186.926 26.9329 186.926 22.8641C186.926 18.7952 190.609 18.4341 195.774 18.4341C198.08 18.4239 200.385 18.5687 202.671 18.8675C203.526 18.9758 203.719 19.1323 203.719 20.0713C203.719 21.0102 203.334 21.0825 202.515 20.9621C200.405 20.7119 198.283 20.5713 196.159 20.5407C191.464 20.5407 190.14 20.7334 190.14 22.5631C190.14 24.3929 191.416 24.6577 194.799 24.8022C202.238 25.1152 204.874 25.1513 204.874 29.6174C204.874 34.0835 199.987 34.4326 195.846 34.4326C193.302 34.4554 190.76 34.2985 188.238 33.9631C187.383 33.8427 187.191 33.614 187.191 32.7593C187.191 31.9046 187.576 31.7481 188.394 31.8324C190.969 32.1766 193.562 32.3695 196.159 32.4102C200.541 32.3861 201.66 31.6638 201.66 30.0387Z" fill="#231F20"/>
<path d="M226.687 27.3186H212.988C212.531 27.3186 212.182 27.439 212.182 28.1733C212.182 32.2421 216.323 32.3264 220.283 32.3264C222.244 32.2875 224.201 32.1429 226.146 31.893C227.036 31.7847 227.422 31.7004 227.422 32.7477C227.422 33.795 227.229 33.795 226.374 33.9515C224.381 34.242 222.37 34.3868 220.355 34.3849C211.471 34.3849 208.678 32.519 208.678 26.4278C208.678 21.3116 210.195 18.4346 218.923 18.4346C227.024 18.4346 229.011 20.9625 229.011 25.5009C228.975 26.3676 228.818 27.3186 226.687 27.3186ZM218.851 20.3486C213.686 20.3486 212.182 21.1672 212.182 24.8027C212.182 25.2721 212.603 25.4286 213.072 25.4286H224.617C225.086 25.4286 225.508 25.2721 225.508 24.8027C225.52 21.0709 223.846 20.3486 218.851 20.3486Z" fill="#231F20"/>
<path d="M182.003 14.1375C182.003 14.9922 182.003 15.4135 180.365 15.4135C178.728 15.4135 178.704 14.9922 178.704 14.1375V13.7282C178.704 12.8735 178.704 12.4521 180.365 12.4521C182.027 12.4521 182.003 12.8735 182.003 13.7282V14.1375Z" fill="#231F20"/>
<path d="M172.336 18.7832C170.434 18.7832 170.398 18.7832 170.012 20.2639L166.979 31.5435C166.786 32.2417 166.365 32.2778 165.703 32.2778H165.546C164.884 32.2778 164.463 32.2778 164.27 31.5435L161.863 20.4204C161.562 19.1564 160.828 18.8554 159.636 18.7952H159.612C158.408 18.7952 157.698 19.1564 157.385 20.4204L154.977 31.5435C154.784 32.2417 154.351 32.2778 153.689 32.2778H153.545C152.882 32.2778 152.449 32.2778 152.256 31.5435L149.235 20.2639C148.85 18.8193 148.802 18.7832 146.912 18.7832C145.587 18.7832 145.311 19.1323 145.708 20.2639L149.319 32.3982C149.789 33.7946 150.523 34.0353 152.076 34.0353H154.796C156.301 34.0353 157.204 33.8307 157.553 32.3982L159.612 23.153L161.67 32.3861C161.983 33.8186 162.874 34.0233 164.427 34.0233H167.22C168.724 34.0233 169.507 33.7825 169.964 32.3861L173.576 20.2518C173.925 19.1443 173.66 18.7832 172.336 18.7832Z" fill="#231F20"/>
<path d="M17.5634 32.9157C9.61835 25.8735 11.2676 16.3876 1.40844 13.041C0.477568 15.6699 0.00127754 18.4381 0 21.2268C0.0190737 26.7921 1.90509 32.1899 5.35604 36.5561C8.80699 40.9222 13.6232 44.004 19.0336 45.308C24.4439 46.6121 30.1353 46.0629 35.1965 43.7484C40.2576 41.4339 44.3957 37.488 46.9481 32.5426C40.4356 40.4756 24.1963 38.7421 17.5634 32.9157Z" fill="url(#paint0_linear)"/>
<path d="M23.2214 6.32447C16.437 5.45516 9.54341 6.3937 3.23836 9.04505C3.02167 9.40619 2.57627 10.2488 2.28735 10.923C13.0132 11.2841 19.8026 25.1639 19.8026 25.1639C19.8026 25.1639 19.5859 26.5001 16.6607 28.2938C19.3092 28.953 22.0859 28.8907 24.7021 28.1132C37.6188 34.5897 44.5286 31.857 47.3696 29.5578C50.2106 27.2585 49.2475 24.4657 48.2002 22.5517C44.8537 16.3762 35.6807 10.598 30.8053 8.43111C30.8053 8.43111 28.0848 1.20833 23.7511 0.570312C24.2687 5.00029 23.2214 6.32447 23.2214 6.32447Z" fill="#231F20"/>
<path d="M31.1791 23.6208C32.0038 22.3489 30.6917 20.0336 28.2484 18.4493C25.8051 16.865 23.1558 16.6118 22.3311 17.8836C21.5064 19.1555 22.8186 21.4708 25.2619 23.0551C27.7052 24.6394 30.3545 24.8927 31.1791 23.6208Z" fill="white"/>
<defs>
<linearGradient id="paint0_linear" x1="0.0481519" y1="29.5692" x2="47.0444" y2="29.5692" gradientUnits="userSpaceOnUse">
<stop stop-color="#236592"/>
<stop offset="0.03" stop-color="#2A6D99"/>
<stop offset="0.2" stop-color="#4B92B9"/>
<stop offset="0.36" stop-color="#65AFD2"/>
<stop offset="0.53" stop-color="#77C3E4"/>
<stop offset="0.69" stop-color="#82D0EF"/>
<stop offset="0.85" stop-color="#86D4F3"/>
</linearGradient>
</defs>
</svg>
